<svg id="Capa_1" data-name="Capa 1" xmlns="http://www.w3.org/2000/svg" viewBox="0 0 256 256"><defs><style>.cls-1{fill:#ec662e;}.cls-2{fill:#fff;}</style></defs><rect class="cls-1" width="255.5" height="255.5" rx="64"/><path class="cls-2" d="M169.08,95.28,191.4,39.75l-59.24-8.43L139,43.09,76.27,79.28a23.3,23.3,0,0,0-3.55,37.88v0l.51.4c.34.28.67.54,1,.8l23.32,18.1A13.52,13.52,0,0,1,102.5,118l59.79-34.51Z"/><path class="cls-2" d="M170.91,136.36a23.09,23.09,0,0,0-5-6v0l-.56-.44c-.31-.25-.62-.5-1-.73L141.07,111a13.51,13.51,0,0,1-4.95,18.46l-2.89,1.67h0L86.78,158C69.35,168,64.6,175.38,64.6,198.16v26.52l97.77-56.45A23.32,23.32,0,0,0,170.91,136.36Z"/></svg>