<?xml version="1.0" encoding="utf-8"?>
<!-- Generator: Adobe Illustrator 25.2.3, SVG Export Plug-In . SVG Version: 6.00 Build 0)  -->
<svg version="1.1" id="Capa_1" xmlns="http://www.w3.org/2000/svg" xmlns:xlink="http://www.w3.org/1999/xlink" x="0px" y="0px"
	 viewBox="0 0 128 120" style="enable-background:new 0 0 128 120;" xml:space="preserve">
<style type="text/css">
	.st0{fill:#FF5C1A;}
	.st1{fill:#FFFFFF;}
</style>
<g>
	<path class="st0" d="M99.7,0H28.3C12.7,0,0,12.7,0,28.3v1.5v60.3v1.5C0,107.3,12.7,120,28.3,120h71.3c15.7,0,28.3-12.7,28.3-28.3
		v-1.5V29.8v-1.5C128,12.7,115.3,0,99.7,0z"/>
	<path class="st1" d="M49.9,88.1c-1.7-0.4-2.6-0.7-2.9-0.9c-0.7-0.3-1-0.9-1-1.5c0-0.5,0.2-0.9,0.5-1.3c0.3-0.3,0.8-0.5,1.3-0.5h3.3
		c0.6,0,1.1-0.2,1.5-0.6c0.4-0.4,0.6-0.9,0.6-1.5v0c0-0.6-0.2-1.1-0.6-1.5c-0.4-0.4-0.9-0.6-1.5-0.6H48c-1.6,0-3.1,0.6-4.2,1.8
		C42.6,82.6,42,84,42,85.7c0,1.7,0.5,3,1.4,3.9c0.7,0.7,1.7,1.2,3,1.6c1.8,0.5,2.7,0.8,2.9,0.9c0.7,0.3,1,0.8,1,1.4
		c0,0.5-0.2,0.9-0.5,1.3c-0.3,0.3-0.8,0.5-1.3,0.5h-4.7c-0.6,0-1,0.2-1.5,0.6c-0.4,0.4-0.6,0.9-0.6,1.5v0c0,0.6,0.2,1.1,0.6,1.5
		c0.4,0.4,0.9,0.6,1.5,0.6h4.5c1.6,0,3.1-0.6,4.2-1.8c1.2-1.2,1.8-2.6,1.8-4.2c0-1.7-0.5-3-1.4-3.9C52.3,89,51.3,88.5,49.9,88.1z
		 M29.7,79.7c-2.5,0-4.4,0.6-5.7,1.7v-6.7c0-0.6-0.2-1.1-0.6-1.5c-0.4-0.4-0.9-0.6-1.5-0.6h-0.1c-0.6,0-1,0.2-1.5,0.6
		c-0.4,0.4-0.6,0.9-0.6,1.5v14.9c0,2.7,1,5,2.9,7c1.9,1.9,4.2,2.9,7,2.9c2.7,0,5.1-1,7-2.9c1.9-1.9,2.9-4.3,2.9-7c0-2.7-1-5.1-2.9-7
		C34.7,80.6,32.4,79.7,29.7,79.7z M33.7,93.6c-1.1,1.1-2.5,1.7-4,1.7c-1.6,0-2.9-0.6-4-1.7c-1.1-1.1-1.6-2.5-1.6-4
		c0-1.6,0.5-2.9,1.6-4c1.1-1.1,2.5-1.7,4-1.7c1.6,0,2.9,0.6,4,1.7c1.1,1.1,1.7,2.5,1.7,4C35.4,91.2,34.8,92.5,33.7,93.6z M75.4,47.3
		c-0.3-0.6-0.8-1.1-1.3-1.5l0,0L74,45.6c-0.1-0.1-0.2-0.1-0.2-0.2l-5.9-4.6c0.9,1.6,0.4,3.8-1.3,4.7L65.8,46
		c-2.7,1.6-8.5,4.9-11.8,6.8c-4.4,2.6-5.6,4.4-5.6,10.2s0,6.8,0,6.8l24.9-14.4C76.1,53.8,77,50.1,75.4,47.3z M67,79.7
		c-2.7,0-5.1,1-7,2.9c-1.9,1.9-2.9,4.3-2.9,7c0,2.7,1,5.1,2.9,7c1.9,1.9,4.3,2.9,7,2.9c2.5,0,4.4-0.7,5.7-2.1c0,0.6,0.2,1.1,0.6,1.5
		c0.4,0.4,0.9,0.6,1.5,0.6h0.1c0.6,0,1-0.2,1.5-0.6c0.4-0.4,0.6-0.9,0.6-1.5v-7.8c0-2.7-1-5.1-2.9-7C72.1,80.6,69.7,79.7,67,79.7z
		 M71,93.6c-1.1,1.1-2.4,1.6-4,1.6c-1.6,0-2.9-0.6-4-1.6c-1.1-1.1-1.6-2.5-1.6-4c0-1.6,0.5-2.9,1.6-4c1.1-1.1,2.5-1.7,4-1.7
		c1.6,0,2.9,0.6,4,1.7c1.1,1.1,1.7,2.5,1.7,4C72.7,91.1,72.1,92.5,71,93.6z M107.8,91c-0.4-0.6-1-0.9-1.7-0.9c-1,0-1.7,0.5-2,1.4
		c-0.4,1.1-1.1,2-2,2.7c-1,0.7-2.1,1.1-3.3,1.1c-1.8,0-3.2-0.5-4.1-1.6c0.6-0.3,2.5-1.1,5.7-2.6c2.6-1.2,4.7-2.1,6.3-2.9
		c0.5-0.2,0.9-0.6,1.1-1.2c0.1-0.2,0.1-0.5,0.1-0.7c0-0.3-0.1-0.6-0.2-0.9c-0.8-1.7-2-3.1-3.6-4.2c-1.6-1.1-3.4-1.6-5.4-1.6
		c-2.7,0-5.1,1-7,2.9c-1.9,1.9-2.9,4.3-2.9,7c0,2.7,1,5.1,2.9,7c1.9,1.9,4.3,2.9,7,2.9c2.1,0,4.1-0.6,5.8-1.9
		c1.7-1.2,2.9-2.8,3.6-4.7c0.1-0.3,0.1-0.5,0.1-0.7C108.2,91.7,108.1,91.3,107.8,91z M93.1,89.6c0-1.6,0.5-2.9,1.6-4
		c1.1-1.1,2.5-1.7,4-1.7c1.8,0,3.1,0.5,3.9,1.5l-9.6,4.3V89.6z M83.2,72.6L83.2,72.6c-0.6,0-1.1,0.2-1.5,0.6
		c-0.4,0.4-0.6,0.9-0.6,1.5v22.7c0,0.6,0.2,1.1,0.6,1.5c0.4,0.4,0.9,0.6,1.5,0.6h0.1c0.6,0,1-0.2,1.5-0.6c0.4-0.4,0.6-0.9,0.6-1.5
		V74.7c0-0.6-0.2-1.1-0.6-1.5C84.2,72.8,83.7,72.6,83.2,72.6z M67.2,23.5l-16,9.2c-2.8,1.6-3.8,5.3-2.2,8.1c0.3,0.6,0.8,1.1,1.3,1.5
		l0,0l0.1,0.1c0.1,0.1,0.2,0.1,0.3,0.2l5.9,4.6c-0.9-1.6-0.4-3.7,1.3-4.7l15.2-8.8l1.7,3l5.7-14.1l-15.1-2.1L67.2,23.5z"/>
</g>
</svg>
