<?xml version="1.0" encoding="utf-8"?>
<!-- Generator: Adobe Illustrator 25.2.3, SVG Export Plug-In . SVG Version: 6.00 Build 0)  -->
<svg version="1.1" id="Capa_1" xmlns="http://www.w3.org/2000/svg" xmlns:xlink="http://www.w3.org/1999/xlink" x="0px" y="0px"
	 viewBox="0 0 272 128" style="enable-background:new 0 0 272 128;" xml:space="preserve">
<style type="text/css">
	.st0{fill:#39404A;}
	.st1{fill:#FFFFFF;}
</style>
<g>
	<path class="st0" d="M243.7,0h-0.3H28.6h-0.3C12.7,0,0,12.7,0,28.3v71.3C0,115.3,12.7,128,28.3,128h0.3h214.8h0.3
		c15.7,0,28.3-12.7,28.3-28.3V28.3C272,12.7,259.3,0,243.7,0z"/>
	<path class="st1" d="M65.6,64.9L65.6,64.9l-0.2-0.1c-0.1-0.1-0.2-0.2-0.3-0.2l-5.5-4.2C59,60,58.2,60.3,58.2,61
		c0,1.5-0.8,2.9-2.2,3.7l-0.9,0.5c-3.4,2-10.6,6.1-14.8,8.5c-5.6,3.2-7.1,5.5-7.1,12.8v7c0,0.7,0.7,1.1,1.3,0.7l30-17.2
		c3.6-2.1,4.8-6.6,2.7-10.2C66.8,66.1,66.2,65.5,65.6,64.9z M106.9,53.5c-3.4,0-6.2,0.6-8.2,1.9c-0.6,0.4-1.3-0.1-1.3-0.7v-9.5
		c0-1-0.3-1.8-1-2.5s-1.5-1-2.4-1h-0.1c-0.9,0-1.8,0.3-2.5,1s-1,1.5-1,2.5v25c0,4.6,1.7,8.5,4.9,11.7c3.2,3.2,7.1,4.8,11.7,4.8
		s8.5-1.6,11.7-4.9c3.2-3.2,4.9-7.2,4.9-11.7c0-4.6-1.6-8.5-4.9-11.7C115.4,55.1,111.5,53.5,106.9,53.5z M114.3,76.3
		c-2,2.4-5.2,3.7-8.3,3.4c-2.2-0.2-4.2-1.1-5.8-2.8c-1.8-1.9-2.8-4.1-2.8-6.7c0-2.7,0.9-4.9,2.8-6.8c1.6-1.6,3.6-2.6,5.8-2.8
		c3.1-0.3,6.3,1,8.3,3.4c1.5,1.7,2.2,3.8,2.2,6.1C116.5,72.5,115.7,74.5,114.3,76.3z M56.6,36.4c0.2,0.4,0.1,0.9-0.3,1.2L37.1,48.7
		c-3.6,2.1-4.8,6.6-2.7,10.2c0.4,0.7,1,1.4,1.6,1.9l0,0l0.2,0.1c0.1,0.1,0.2,0.2,0.3,0.3l5.5,4.2c0.6,0.4,1.4,0.1,1.4-0.6
		c0-1.5,0.8-2.9,2.2-3.7l18.3-10.6c0.4-0.2,0.9-0.1,1.2,0.3l0.9,1.5c0.4,0.6,1.3,0.6,1.5-0.1l6.1-15.1c0.2-0.5-0.1-1.1-0.7-1.2
		l-16.1-2.3c-0.7-0.1-1.2,0.7-0.9,1.3L56.6,36.4z M238,72.4c-0.7-1-1.7-1.5-2.9-1.5c-1.7,0-2.8,0.8-3.3,2.4
		c-0.7,1.9-1.8,3.4-3.4,4.6c-1.7,1.2-3.5,1.8-5.6,1.8c-2.5,0-4.5-0.6-5.9-1.8c-0.5-0.4-0.4-1.2,0.2-1.4c1.5-0.7,4.4-2,8.5-3.8
		c4.4-2,7.9-3.6,10.6-4.8c0.9-0.4,1.5-1.1,1.8-2c0.2-0.4,0.2-0.8,0.2-1.2c0-0.5-0.1-1-0.3-1.5c-1.3-2.9-3.3-5.2-6-7s-5.7-2.7-9-2.7
		c-4.6,0-8.5,1.6-11.7,4.9c-3.2,3.2-4.9,7.2-4.9,11.7c0,4.6,1.6,8.5,4.9,11.7c3.2,3.2,7.2,4.9,11.7,4.9c3.6,0,6.8-1,9.7-3.1
		c2.8-2,4.8-4.7,6-8c0.2-0.4,0.2-0.8,0.2-1.2C238.7,73.7,238.4,73,238,72.4z M213.2,70.2c0-2.7,0.9-4.9,2.8-6.8
		c1.9-1.9,4.1-2.8,6.8-2.8c2.4,0,4.2,0.5,5.6,1.6c0.5,0.4,0.4,1.2-0.2,1.4L213.2,70.2L213.2,70.2L213.2,70.2z M196.6,41.7
		L196.6,41.7c-1,0-1.8,0.3-2.5,1s-1,1.5-1,2.5v38c0,1,0.3,1.8,1,2.5s1.5,1,2.4,1h0.1c0.9,0,1.8-0.3,2.4-1c0.7-0.7,1-1.5,1-2.5v-38
		c0-1-0.3-1.8-1-2.5C198.4,42,197.6,41.7,196.6,41.7z M140.9,67.6c-2.8-0.7-4.4-1.2-4.8-1.4c-1.1-0.6-1.7-1.4-1.7-2.6
		c0-0.8,0.3-1.5,0.9-2.1c0.6-0.6,1.3-0.9,2.1-0.9h5.6c1,0,1.8-0.3,2.5-1s1-1.5,1-2.4V57c0-1-0.3-1.8-1-2.5s-1.5-1-2.5-1h-5.3
		c-2.8,0-5.1,1-7.1,3s-2.9,4.3-2.9,7.1c0,2.8,0.8,5,2.4,6.6c1.1,1.1,2.8,2,5.1,2.7c2.9,0.8,4.6,1.3,4.8,1.4c1.1,0.5,1.6,1.3,1.6,2.4
		c0,0.8-0.3,1.6-0.9,2.1c-0.6,0.6-1.3,0.9-2.1,0.9h-7.8c-0.9,0-1.8,0.3-2.4,1c-0.7,0.7-1,1.5-1,2.5v0.1c0,1,0.3,1.8,1,2.5
		s1.5,1,2.4,1h7.5c2.8,0,5.1-1,7.1-2.9c2-2,2.9-4.4,2.9-7.1c0-2.8-0.8-5-2.4-6.5C144.8,69.1,143.1,68.2,140.9,67.6z M169.6,53.5
		c-4.6,0-8.5,1.6-11.7,4.9c-3.2,3.2-4.9,7.2-4.9,11.7c0,4.6,1.6,8.5,4.9,11.7c3.2,3.2,7.2,4.9,11.7,4.9c3.5,0,6.4-0.8,8.5-2.5
		c0.5-0.4,1.1-0.2,1.3,0.4c0.2,0.4,0.4,0.8,0.8,1.1c0.7,0.7,1.5,1,2.4,1h0.1c0.9,0,1.8-0.3,2.5-1s1-1.5,1-2.5V70.1
		c0-4.6-1.6-8.5-4.9-11.7C178,55.1,174.1,53.5,169.6,53.5z M176.3,76.9c-1.8,1.8-4.1,2.8-6.7,2.8c-2.7,0-4.9-0.9-6.8-2.8
		c-1.8-1.9-2.8-4.1-2.8-6.8c0-2.6,0.9-4.9,2.8-6.7c1.9-1.9,4.1-2.8,6.8-2.8c2.6,0,4.9,0.9,6.7,2.8c1.9,1.9,2.8,4.1,2.8,6.7
		S178.2,75,176.3,76.9z"/>
</g>
</svg>
